<?xml version="1.0" encoding="UTF-8"?><svg id="_レイヤー_2" xmlns="http://www.w3.org/2000/svg" viewBox="0 0 486.40332 86.90527"><defs><style>.cls-1{fill:none;stroke:#f2f2f2;stroke-miterlimit:10;stroke-width:8px;}.cls-2{fill:#f2f2f2;}</style></defs><g id="_レイヤー_1-2"><path class="cls-2" d="M144.2041,85.70508c-4.30029-.5-7.90039-.7002-16.50098-.7002h-31.50195c-7.60059,0-10.40088.09961-14.70117.2998.6001-4,.80029-7.7002.80029-14.60059V16.10059c0-6.2002-.2002-9.7002-.80029-14.60059,4.10059.19922,6.90039.2998,14.70117.2998h31.90186c6.80029,0,10.20068-.2002,14.90088-.7002v18.70117c-4.6001-.5-8.20068-.7002-14.90088-.7002h-26.00146v14.70117h21.60107c6.60059,0,9.00049-.10059,15.00098-.7002v18.50098c-4.7002-.5-8.10059-.7002-15.00098-.7002h-21.60107v16.80176h25.80127c7.60059,0,12.00098-.2002,16.30127-.7002v18.70117Z"/><path class="cls-2" d="M209.55127,85.00488c-6.90039,0-11.00098.09961-14.80127.2998.6001-3.5.80029-7.90039.80029-14.60059V17.90039c0-7-.2002-11.30078-.80029-16.10059h21.80176c-.7002,5.2002-.80029,8-.80029,15.80078v49.60352h24.20166c8.50049,0,11.90039-.10059,16.60059-.7002v19.20117c-3.7002-.5-8.6001-.7002-16.60059-.7002h-30.40186Z"/><path class="cls-2" d="M340.20508,43.00195c0,26.40137-16.10107,43.90332-40.40234,43.90332-24.50195,0-40.30273-17.10156-40.30273-43.60352,0-26.40137,15.80078-43.30176,40.40234-43.30176s40.30273,16.80078,40.30273,43.00195ZM319.40381,43.20215c0-16.20117-7.40039-26.00195-19.50146-26.00195-12.20068,0-19.70117,9.90137-19.70117,26.00195,0,16.30078,7.50049,26.40137,19.70117,26.40137,12.10107,0,19.50146-10,19.50146-26.40137Z"/><path class="cls-2" d="M396.25293,54.60254c-5.09961,0-6.7998.10059-9.90039.5v-17.70117c3.7002.5,6.10059.60059,13.10059.60059h8.00098c5.09961,0,8.7998-.10059,13.2002-.5-.5,3.7998-.7002,7.10059-.7002,13.60059v11.20117c0,7.09961.10059,10.2998.7002,14.90039-5.5,3.5-8.2002,4.80078-12.7002,6.30078-6.50098,2.19922-13.80078,3.39941-21.20117,3.39941-12.70117,0-22.60156-3.5-29.70215-10.7002-7.60059-7.60059-11.80078-19.50098-11.80078-33.20215,0-26.30176,15.90088-43.00195,41.10254-43.00195,12.50098,0,22.00098,3.89941,28.60156,11.90039,2.7002,3.09961,4.30078,6.10059,5.90039,10.90039l-20.40137,4.7002c-1.09961-3.59961-2.2998-5.5-4.5-7.2002-2.60059-2.10059-5.90039-3.10059-10.10059-3.10059-12.80078,0-19.80127,9.30078-19.80127,26.10156,0,9.30078,2.1001,16.50098,6.10059,20.90137,3.19971,3.50098,8.1001,5.40039,14.40088,5.40039,5.2998,0,9.60059-1.09961,14.50098-3.59961v-11.40137h-4.80078Z"/><path class="cls-2" d="M447.10107,64.60352c1,5.2002,4.3999,7.5,11.10107,7.5,6,0,9.40039-1.69922,9.40039-4.7998,0-1.5-.7998-2.7998-2.2002-3.60059-1.40039-.7998-2.7002-1.2002-8.2002-2.2998-7.60059-1.5-11.50098-2.5-14.80127-3.60059-4.80029-1.7998-8.10059-4.09961-10.00049-7.10059-1.6001-2.69922-2.5-6.09961-2.5-9.5,0-12.00098,10.10059-19.30176,26.80176-19.30176,9.5,0,16.60059,2.10059,21.30078,6.40039,3.30078,2.90039,4.90039,5.80078,6.50098,11.40137l-19.30176,2.09961c-.5-4.09961-3-5.90039-8.40039-5.90039-5.2002,0-8.40039,1.7002-8.40039,4.30078,0,2.7002,2.1001,3.7002,12.00098,5.90039,9.7998,2.09961,12.90039,3,16.40039,4.7998,6.50098,3.2002,9.60059,8.10059,9.60059,15.30078,0,5.30078-1.7998,10.10059-5.09961,13.30078-4.80078,4.80078-13.00098,7.30078-23.70215,7.30078-12.60059,0-21.50098-3.40039-26.30127-10-2-2.80078-3.00049-5.20117-4.00049-10.00098l19.80127-2.2002Z"/><polygon class="cls-1" points="182.02377 42.78928 160.2998 60.52154 160.02071 25.40454 182.02377 42.78928"/><path class="cls-2" d="M64.604,11.7002C57.90381,5.2002,48.00293,1.7998,35.70215,1.7998H14.80127c-8.30078,0-10.80078-.10059-14.80127-.2998.7002,4.59961.90039,7.90039.90039,14.7002v17.10449h19.80127v-14.00391h13.10059c7.20068,0,12.00049,1.59961,15.50098,5.10059,3.90039,3.89941,5.80029,10.10059,5.80029,18.60059,0,8.30078-2.2002,15.00098-6.30029,19.20117-3.6001,3.60059-8.20068,5.30078-14.70117,5.30078h-13.40039v-14.19922H.90039v17.39941c0,6.90039-.2002,10.2002-.80029,14.60059,4.2002-.2002,7.00049-.2998,14.70117-.2998h21.10107c11.90088,0,21.40137-3.40039,28.10156-10.00098,7.60059-7.60059,11.60107-18.60059,11.60107-32.30176,0-13.30078-3.7002-23.80176-11.00098-31.00195Z"/></g></svg>